<svg width="86" height="27" viewBox="0 0 86 27" fill="none" xmlns="http://www.w3.org/2000/svg">
<path d="M0.481977 0.0319998H3.72998C5.41931 0.0319998 6.66531 0.424 7.46798 1.208C8.27064 1.992 8.67198 3.23333 8.67198 4.932C8.67198 6.60267 8.29864 7.86733 7.55198 8.726C6.80531 9.57533 5.61064 10 3.96798 10H0.481977V0.0319998ZM1.79798 1.166V8.866H3.79998C5.05064 8.866 5.95598 8.56267 6.51598 7.956C7.08531 7.34 7.36998 6.38333 7.36998 5.086C7.36998 3.72333 7.09464 2.72933 6.54398 2.104C5.99331 1.47867 5.05998 1.166 3.74398 1.166H1.79798ZM16.3034 7.718C15.9394 9.398 14.8894 10.238 13.1534 10.238C12.0894 10.238 11.2541 9.90667 10.6474 9.244C10.0501 8.58133 9.7514 7.662 9.7514 6.486C9.7514 5.31933 10.0594 4.37667 10.6754 3.658C11.3007 2.93 12.1127 2.566 13.1114 2.566C14.2221 2.566 15.0434 2.944 15.5754 3.7C16.1167 4.44667 16.3874 5.394 16.3874 6.542V6.71H10.9554L10.9414 6.794C10.9414 7.55933 11.1421 8.16133 11.5434 8.6C11.9447 9.03867 12.4954 9.258 13.1954 9.258C13.7181 9.258 14.1287 9.13667 14.4274 8.894C14.7354 8.65133 14.9734 8.25933 15.1414 7.718H16.3034ZM15.1554 5.744C15.0994 5.05333 14.8894 4.51667 14.5254 4.134C14.1614 3.742 13.6807 3.546 13.0834 3.546C12.5047 3.546 12.0241 3.742 11.6414 4.134C11.2587 4.526 11.0301 5.06267 10.9554 5.744H15.1554ZM16.9489 2.776H18.2789L20.3229 8.838L22.3109 2.776H23.5569L20.9109 10H19.6369L16.9489 2.776ZM30.8229 7.718C30.4589 9.398 29.4089 10.238 27.6729 10.238C26.6089 10.238 25.7736 9.90667 25.1669 9.244C24.5696 8.58133 24.2709 7.662 24.2709 6.486C24.2709 5.31933 24.5789 4.37667 25.1949 3.658C25.8203 2.93 26.6323 2.566 27.6309 2.566C28.7416 2.566 29.5629 2.944 30.0949 3.7C30.6363 4.44667 30.9069 5.394 30.9069 6.542V6.71H25.4749L25.4609 6.794C25.4609 7.55933 25.6616 8.16133 26.0629 8.6C26.4643 9.03867 27.0149 9.258 27.7149 9.258C28.2376 9.258 28.6483 9.13667 28.9469 8.894C29.2549 8.65133 29.4929 8.25933 29.6609 7.718H30.8229ZM29.6749 5.744C29.6189 5.05333 29.4089 4.51667 29.0449 4.134C28.6809 3.742 28.2003 3.546 27.6029 3.546C27.0243 3.546 26.5436 3.742 26.1609 4.134C25.7783 4.526 25.5496 5.06267 25.4749 5.744H29.6749ZM33.4285 0.0319998V10H32.2245V0.0319998H33.4285ZM35.846 3.602C36.4806 2.91133 37.344 2.566 38.436 2.566C39.528 2.566 40.3773 2.89733 40.984 3.56C41.5906 4.22267 41.894 5.15133 41.894 6.346C41.894 7.56867 41.5906 8.52067 40.984 9.202C40.3773 9.88333 39.5233 10.224 38.422 10.224C37.3206 10.224 36.4573 9.888 35.832 9.216C35.2066 8.544 34.894 7.61067 34.894 6.416C34.894 5.23067 35.2113 4.29267 35.846 3.602ZM40.06 4.33C39.6586 3.81667 39.108 3.56 38.408 3.56C37.708 3.56 37.1526 3.81667 36.742 4.33C36.3313 4.84333 36.126 5.52933 36.126 6.388C36.126 7.27467 36.3266 7.97 36.728 8.474C37.1386 8.96867 37.708 9.216 38.436 9.216C39.136 9.216 39.682 8.964 40.074 8.46C40.4753 7.956 40.676 7.26067 40.676 6.374C40.676 5.51533 40.4706 4.834 40.06 4.33ZM44.431 2.776V3.798C44.9537 2.96733 45.7657 2.552 46.867 2.552C47.875 2.552 48.673 2.89267 49.261 3.574C49.8584 4.25533 50.157 5.17933 50.157 6.346C50.157 7.51267 49.863 8.446 49.275 9.146C48.6964 9.83667 47.9124 10.182 46.923 10.182C45.887 10.182 45.0797 9.78533 44.501 8.992V12.786H43.311V2.776H44.431ZM46.685 3.546C45.9944 3.546 45.4484 3.798 45.047 4.302C44.655 4.79667 44.459 5.48267 44.459 6.36C44.459 7.23733 44.6597 7.928 45.061 8.432C45.4717 8.92667 46.027 9.174 46.727 9.174C47.4084 9.174 47.945 8.922 48.337 8.418C48.729 7.914 48.925 7.228 48.925 6.36C48.925 5.48267 48.7244 4.79667 48.323 4.302C47.931 3.798 47.385 3.546 46.685 3.546ZM57.7839 7.718C57.4199 9.398 56.3699 10.238 54.6339 10.238C53.5699 10.238 52.7345 9.90667 52.1279 9.244C51.5305 8.58133 51.2319 7.662 51.2319 6.486C51.2319 5.31933 51.5399 4.37667 52.1559 3.658C52.7812 2.93 53.5932 2.566 54.5919 2.566C55.7025 2.566 56.5239 2.944 57.0559 3.7C57.5972 4.44667 57.8679 5.394 57.8679 6.542V6.71H52.4359L52.4219 6.794C52.4219 7.55933 52.6225 8.16133 53.0239 8.6C53.4252 9.03867 53.9759 9.258 54.6759 9.258C55.1985 9.258 55.6092 9.13667 55.9079 8.894C56.2159 8.65133 56.4539 8.25933 56.6219 7.718H57.7839ZM56.6359 5.744C56.5799 5.05333 56.3699 4.51667 56.0059 4.134C55.6419 3.742 55.1612 3.546 54.5639 3.546C53.9852 3.546 53.5045 3.742 53.1219 4.134C52.7392 4.526 52.5105 5.06267 52.4359 5.744H56.6359ZM65.6394 0.0319998V10H64.5194V8.936C64.0621 9.776 63.2687 10.196 62.1394 10.196C61.1127 10.196 60.2961 9.85533 59.6894 9.174C59.0921 8.48333 58.7934 7.55 58.7934 6.374C58.7934 5.282 59.0734 4.37667 59.6334 3.658C60.2027 2.93 61.0194 2.566 62.0834 2.566C63.1194 2.566 63.9081 2.958 64.4494 3.742V0.0319998H65.6394ZM62.2374 3.588C61.5561 3.588 61.0147 3.83533 60.6134 4.33C60.2214 4.82467 60.0254 5.49667 60.0254 6.346C60.0254 7.22333 60.2261 7.92333 60.6274 8.446C61.0381 8.95933 61.5841 9.216 62.2654 9.216C62.9561 9.216 63.4974 8.96867 63.8894 8.474C64.2814 7.97 64.4774 7.27467 64.4774 6.388C64.4774 5.59467 64.2907 4.932 63.9174 4.4C63.5534 3.85867 62.9934 3.588 62.2374 3.588ZM72.5007 0.0319998V3.77C73.0234 2.97667 73.8214 2.58 74.8947 2.58C75.884 2.58 76.6727 2.92533 77.2607 3.616C77.858 4.29733 78.1567 5.212 78.1567 6.36C78.1567 7.52667 77.8534 8.46 77.2467 9.16C76.64 9.86 75.8327 10.21 74.8247 10.21C73.6767 10.21 72.8787 9.79 72.4307 8.95V10H71.3107V0.0319998H72.5007ZM74.7127 3.588C73.9474 3.588 73.378 3.86333 73.0047 4.414C72.6407 4.96467 72.4587 5.64133 72.4587 6.444C72.4587 7.29333 72.6594 7.97 73.0607 8.474C73.4714 8.96867 74.022 9.216 74.7127 9.216C75.3754 9.216 75.9074 8.95933 76.3087 8.446C76.7194 7.92333 76.9247 7.23267 76.9247 6.374C76.9247 5.52467 76.724 4.848 76.3227 4.344C75.9214 3.84 75.3847 3.588 74.7127 3.588ZM85.6015 2.776L82.5075 10.924C82.3862 11.2507 82.2789 11.5027 82.1855 11.68C82.1015 11.8667 81.9755 12.0673 81.8075 12.282C81.6489 12.506 81.4529 12.6647 81.2195 12.758C80.9955 12.8607 80.7295 12.912 80.4215 12.912C80.1882 12.912 79.8942 12.87 79.5395 12.786V11.722C79.8849 11.8247 80.1415 11.876 80.3095 11.876C80.7015 11.876 80.9815 11.6753 81.1495 11.274L81.7095 9.958L78.8395 2.776H80.1835L82.3255 8.53L84.3555 2.776H85.6015ZM29.6399 18.972H27.9739C27.8712 17.8053 27.1479 17.222 25.8039 17.222C25.2065 17.222 24.7399 17.348 24.4039 17.6C24.0679 17.8427 23.8999 18.1787 23.8999 18.608C23.8999 19.0093 24.0212 19.2847 24.2639 19.434C24.5159 19.5833 25.0665 19.7653 25.9159 19.98C26.1399 20.0453 26.3125 20.092 26.4339 20.12C27.5445 20.4 28.3005 20.652 28.7019 20.876C29.5885 21.352 30.0319 22.094 30.0319 23.102C30.0319 23.5407 29.9572 23.9373 29.8079 24.292C29.6585 24.6467 29.4579 24.9453 29.2059 25.188C28.9539 25.4213 28.6552 25.6173 28.3099 25.776C27.9645 25.9347 27.6052 26.0467 27.2319 26.112C26.8585 26.1867 26.4712 26.224 26.0699 26.224C24.8192 26.224 23.8065 25.9253 23.0319 25.328C22.2572 24.7307 21.8699 23.8533 21.8699 22.696H23.5919C23.5919 23.424 23.8299 23.9653 24.3059 24.32C24.7819 24.6653 25.4025 24.838 26.1679 24.838C26.8399 24.838 27.3625 24.7027 27.7359 24.432C28.1185 24.152 28.3099 23.7647 28.3099 23.27C28.3099 22.9527 28.2072 22.696 28.0019 22.5C27.8059 22.2947 27.5912 22.15 27.3579 22.066C27.1245 21.982 26.7185 21.8653 26.1399 21.716C26.0745 21.6973 26.0232 21.6833 25.9859 21.674C24.7445 21.3567 23.9279 21.0953 23.5359 20.89C22.7239 20.47 22.2899 19.8213 22.2339 18.944C22.2339 18.8787 22.2339 18.8133 22.2339 18.748C22.2339 17.8613 22.5652 17.1567 23.2279 16.634C23.8999 16.102 24.7959 15.836 25.9159 15.836C26.9985 15.836 27.8805 16.0927 28.5619 16.606C29.2432 17.1193 29.6025 17.908 29.6399 18.972ZM34.868 18.776V19.938H33.412V23.746C33.412 23.97 33.4167 24.1287 33.426 24.222C33.4353 24.306 33.4633 24.404 33.51 24.516C33.5567 24.6187 33.636 24.6887 33.748 24.726C33.8693 24.7633 34.0327 24.782 34.238 24.782C34.4993 24.782 34.7093 24.7727 34.868 24.754V26.014C34.5507 26.0513 34.1913 26.07 33.79 26.07C33.51 26.07 33.2627 26.0467 33.048 26C32.8427 25.9627 32.67 25.916 32.53 25.86C32.39 25.804 32.2733 25.7107 32.18 25.58C32.0867 25.44 32.012 25.328 31.956 25.244C31.9093 25.1507 31.872 24.992 31.844 24.768C31.8253 24.544 31.816 24.376 31.816 24.264C31.816 24.1427 31.816 23.9373 31.816 23.648C31.816 23.6107 31.816 23.5827 31.816 23.564C31.816 23.536 31.816 23.508 31.816 23.48C31.816 23.4427 31.816 23.41 31.816 23.382V19.938H30.612V18.776H31.816V16.606H33.412V18.776H34.868ZM42.3441 18.776V26H40.8461V24.922C40.2394 25.7713 39.4461 26.196 38.4661 26.196C37.6728 26.196 37.0614 25.972 36.6321 25.524C36.2121 25.0667 36.0021 24.4133 36.0021 23.564V18.776H37.5981V22.906C37.5981 23.158 37.6028 23.3633 37.6121 23.522C37.6214 23.6713 37.6494 23.844 37.6961 24.04C37.7521 24.2267 37.8268 24.3713 37.9201 24.474C38.0228 24.5767 38.1628 24.6653 38.3401 24.74C38.5268 24.8147 38.7508 24.852 39.0121 24.852C39.6094 24.852 40.0481 24.642 40.3281 24.222C40.6081 23.7927 40.7481 23.2513 40.7481 22.598V18.776H42.3441ZM45.6372 16.032V19.714C46.1692 18.9673 46.9578 18.594 48.0032 18.594C48.9645 18.594 49.7345 18.9347 50.3132 19.616C50.9012 20.2973 51.1952 21.2027 51.1952 22.332C51.1952 23.4987 50.8965 24.4367 50.2992 25.146C49.7018 25.846 48.9085 26.196 47.9192 26.196C46.8272 26.196 46.0385 25.804 45.5532 25.02V26H44.0552V16.032H45.6372ZM47.5972 19.868C46.9718 19.8587 46.4772 20.0827 46.1132 20.54C45.7585 20.988 45.5812 21.6087 45.5812 22.402C45.5812 23.1767 45.7585 23.788 46.1132 24.236C46.4772 24.684 46.9718 24.908 47.5972 24.908C48.1945 24.908 48.6752 24.6793 49.0392 24.222C49.4032 23.7553 49.5852 23.1347 49.5852 22.36C49.5852 21.5947 49.4032 20.988 49.0392 20.54C48.6845 20.092 48.2038 19.868 47.5972 19.868ZM54.1958 16.032V19.714C54.7278 18.9673 55.5164 18.594 56.5618 18.594C57.5231 18.594 58.2931 18.9347 58.8718 19.616C59.4598 20.2973 59.7538 21.2027 59.7538 22.332C59.7538 23.4987 59.4551 24.4367 58.8578 25.146C58.2604 25.846 57.4671 26.196 56.4778 26.196C55.3858 26.196 54.5971 25.804 54.1118 25.02V26H52.6138V16.032H54.1958ZM56.1558 19.868C55.5304 19.8587 55.0358 20.0827 54.6718 20.54C54.3171 20.988 54.1398 21.6087 54.1398 22.402C54.1398 23.1767 54.3171 23.788 54.6718 24.236C55.0358 24.684 55.5304 24.908 56.1558 24.908C56.7531 24.908 57.2338 24.6793 57.5978 24.222C57.9618 23.7553 58.1438 23.1347 58.1438 22.36C58.1438 21.5947 57.9618 20.988 57.5978 20.54C57.2431 20.092 56.7624 19.868 56.1558 19.868ZM66.8844 20.876H65.3584C65.265 20.1107 64.7424 19.728 63.7904 19.728C63.3797 19.728 63.0624 19.8027 62.8384 19.952C62.6144 20.1013 62.5024 20.3067 62.5024 20.568C62.5024 20.652 62.507 20.7267 62.5164 20.792C62.535 20.8573 62.563 20.918 62.6004 20.974C62.647 21.0207 62.6844 21.0627 62.7124 21.1C62.7497 21.1373 62.8104 21.1747 62.8944 21.212C62.9784 21.2493 63.0437 21.282 63.0904 21.31C63.1464 21.3287 63.235 21.3567 63.3564 21.394C63.4777 21.422 63.571 21.4453 63.6364 21.464C63.711 21.4827 63.8277 21.5107 63.9864 21.548C64.145 21.576 64.2664 21.5993 64.3504 21.618C64.7144 21.702 64.9757 21.7673 65.1344 21.814C65.3024 21.8513 65.5404 21.9353 65.8484 22.066C66.1657 22.1873 66.399 22.318 66.5484 22.458C66.6977 22.5887 66.833 22.7753 66.9544 23.018C67.085 23.2513 67.1504 23.522 67.1504 23.83C67.1504 24.558 66.8657 25.1367 66.2964 25.566C65.727 25.9953 64.9617 26.21 64.0004 26.21C62.9737 26.21 62.185 25.9953 61.6344 25.566C61.0837 25.1367 60.7897 24.5113 60.7524 23.69H62.2784C62.3624 24.5953 62.9457 25.048 64.0284 25.048C64.495 25.048 64.8684 24.9547 65.1484 24.768C65.4377 24.572 65.5824 24.3153 65.5824 23.998C65.5824 23.8393 65.545 23.704 65.4704 23.592C65.405 23.48 65.293 23.3867 65.1344 23.312C64.9757 23.228 64.8217 23.1673 64.6724 23.13C64.5324 23.0833 64.341 23.032 64.0984 22.976C64.061 22.9667 64.033 22.962 64.0144 22.962C63.9957 22.9527 63.9724 22.948 63.9444 22.948C63.9164 22.9387 63.8884 22.9293 63.8604 22.92C62.8337 22.668 62.1804 22.472 61.9004 22.332C61.2377 22.0147 60.9064 21.4873 60.9064 20.75C60.9064 20.0687 61.1677 19.5367 61.6904 19.154C62.213 18.762 62.9364 18.566 63.8604 18.566C64.747 18.566 65.4704 18.7573 66.0304 19.14C66.5997 19.5227 66.8844 20.1013 66.8844 20.876Z" fill="#3E3E3E"/>
</svg>
